<svg xmlns="http://www.w3.org/2000/svg" viewBox="0 0 100 100" role="img" aria-label="Cat avatar">
  <defs>
    <linearGradient id="bg" x1="0" y1="0" x2="1" y2="1">
      <stop offset="0" stop-color="#0ea5e9"/>
      <stop offset="1" stop-color="#22c55e"/>
    </linearGradient>
  </defs>
  <rect width="100" height="100" rx="24" fill="url(#bg)"/>
  <path d="M28 43 20 30v22c0 19 13 34 30 34s30-15 30-34V30l-8 13-8-10-14 4-14-4-8 10Z" fill="#ffffff" fill-opacity="0.9"/>
  <circle cx="40" cy="55" r="4" fill="#0f172a" fill-opacity="0.85"/>
  <circle cx="60" cy="55" r="4" fill="#0f172a" fill-opacity="0.85"/>
  <path d="M50 60c-3 0-5 2-5 3 0 2 2 3 5 3s5-1 5-3c0-1-2-3-5-3Z" fill="#0f172a" fill-opacity="0.8"/>
  <path d="M36 66c4 5 24 5 28 0" stroke="#0f172a" stroke-opacity="0.35" stroke-width="3" stroke-linecap="round" fill="none"/>
</svg>
