<svg xmlns="http://www.w3.org/2000/svg" viewBox="0 0 100 100" role="img" aria-label="Dog avatar">
  <defs>
    <linearGradient id="bg" x1="0" y1="1" x2="1" y2="0">
      <stop offset="0" stop-color="#a855f7"/>
      <stop offset="1" stop-color="#06b6d4"/>
    </linearGradient>
  </defs>
  <rect width="100" height="100" rx="24" fill="url(#bg)"/>
  <path d="M22 52c0-16 12-28 28-28s28 12 28 28v10c0 14-10 26-28 26S22 76 22 62V52Z" fill="#ffffff" fill-opacity="0.9"/>
  <path d="M20 56c-1-10-2-24 8-28 6-2 10 6 12 14" fill="#ffffff" fill-opacity="0.7"/>
  <path d="M80 56c1-10 2-24-8-28-6-2-10 6-12 14" fill="#ffffff" fill-opacity="0.7"/>
  <circle cx="40" cy="56" r="4" fill="#0f172a" fill-opacity="0.85"/>
  <circle cx="60" cy="56" r="4" fill="#0f172a" fill-opacity="0.85"/>
  <path d="M50 60c-4 0-7 3-7 5 0 4 3 6 7 6s7-2 7-6c0-2-3-5-7-5Z" fill="#0f172a" fill-opacity="0.8"/>
  <path d="M43 72c3 3 11 3 14 0" stroke="#0f172a" stroke-opacity="0.35" stroke-width="3" stroke-linecap="round" fill="none"/>
</svg>
