<svg xmlns="http://www.w3.org/2000/svg" viewBox="0 0 100 100" role="img" aria-label="Panda avatar">
  <defs>
    <linearGradient id="bg" x1="0" y1="1" x2="1" y2="0">
      <stop offset="0" stop-color="#22c55e"/>
      <stop offset="1" stop-color="#f59e0b"/>
    </linearGradient>
  </defs>
  <rect width="100" height="100" rx="24" fill="url(#bg)"/>
  <circle cx="32" cy="34" r="12" fill="#ffffff" fill-opacity="0.9"/>
  <circle cx="68" cy="34" r="12" fill="#ffffff" fill-opacity="0.9"/>
  <path d="M22 55c0-16 12-28 28-28s28 12 28 28v6c0 16-12 28-28 28S22 77 22 61v-6Z" fill="#ffffff" fill-opacity="0.92"/>
  <ellipse cx="40" cy="56" rx="10" ry="12" fill="#0f172a" fill-opacity="0.18"/>
  <ellipse cx="60" cy="56" rx="10" ry="12" fill="#0f172a" fill-opacity="0.18"/>
  <circle cx="40" cy="56" r="4" fill="#0f172a" fill-opacity="0.85"/>
  <circle cx="60" cy="56" r="4" fill="#0f172a" fill-opacity="0.85"/>
  <path d="M50 60c-4 0-6 2-6 4 0 3 3 5 6 5s6-2 6-5c0-2-2-4-6-4Z" fill="#0f172a" fill-opacity="0.8"/>
  <path d="M42 72c4 4 12 4 16 0" stroke="#0f172a" stroke-opacity="0.35" stroke-width="3" stroke-linecap="round" fill="none"/>
</svg>
