<svg xmlns="http://www.w3.org/2000/svg" viewBox="0 0 100 100" role="img" aria-label="Fox avatar">
  <defs>
    <linearGradient id="bg" x1="0" y1="0" x2="1" y2="1">
      <stop offset="0" stop-color="#f97316"/>
      <stop offset="1" stop-color="#ef4444"/>
    </linearGradient>
  </defs>
  <rect width="100" height="100" rx="24" fill="url(#bg)"/>
  <path d="M18 40 34 26l6 10c3-2 7-3 10-3s7 1 10 3l6-10 16 14-10 20c-6 16-16 26-22 26S34 76 28 60L18 40Z" fill="#ffffff" fill-opacity="0.9"/>
  <path d="M36 34 30 28l6 14" fill="#0f172a" fill-opacity="0.12"/>
  <path d="M64 34 70 28l-6 14" fill="#0f172a" fill-opacity="0.12"/>
  <circle cx="42" cy="55" r="4" fill="#0f172a" fill-opacity="0.85"/>
  <circle cx="58" cy="55" r="4" fill="#0f172a" fill-opacity="0.85"/>
  <path d="M50 60c-3 0-5 2-5 4 0 3 2 5 5 5s5-2 5-5c0-2-2-4-5-4Z" fill="#0f172a" fill-opacity="0.8"/>
  <path d="M40 70c6 5 14 5 20 0" stroke="#0f172a" stroke-opacity="0.35" stroke-width="3" stroke-linecap="round" fill="none"/>
</svg>
